<svg xmlns="http://www.w3.org/2000/svg" width="600" height="600" viewBox="0 0 600 600" fill="none">
  <rect width="600" height="600" fill="#fff"/>
  <rect x="30" y="30" width="540" height="540" rx="16" stroke="#1f1f1f" stroke-width="18"/>
  <rect x="70" y="70" width="140" height="140" fill="#1f1f1f"/>
  <rect x="390" y="70" width="140" height="140" fill="#1f1f1f"/>
  <rect x="70" y="390" width="140" height="140" fill="#1f1f1f"/>
  <rect x="250" y="250" width="40" height="40" fill="#1f1f1f"/>
  <rect x="300" y="250" width="40" height="40" fill="#1f1f1f"/>
  <rect x="350" y="250" width="40" height="40" fill="#1f1f1f"/>
  <rect x="250" y="300" width="40" height="40" fill="#1f1f1f"/>
  <rect x="350" y="300" width="40" height="40" fill="#1f1f1f"/>
  <rect x="250" y="350" width="40" height="40" fill="#1f1f1f"/>
  <rect x="300" y="350" width="40" height="40" fill="#1f1f1f"/>
  <rect x="390" y="430" width="40" height="40" fill="#1f1f1f"/>
  <rect x="440" y="430" width="40" height="40" fill="#1f1f1f"/>
  <rect x="390" y="480" width="40" height="40" fill="#1f1f1f"/>
  <text x="300" y="570" text-anchor="middle" fill="#6b6b6b" font-size="24" font-family="Arial, sans-serif">
    Ganti dengan gambar QRIS asli Anda
  </text>
</svg>
